RBDS013runT25_grf
version=1
nRows=15
nColumns=19
inDegrees=no
endheader
time	ground_force_r_vx	ground_force_r_vy	ground_force_r_vz	ground_force_r_px	ground_force_r_py	ground_force_r_pz	ground_force_r_mx	ground_force_r_my	ground_force_r_mz	ground_force_l_vx	ground_force_l_vy	ground_force_l_vz	ground_force_l_px	ground_force_l_py	ground_force_l_pz	ground_force_l_mx	ground_force_l_my	ground_force_l_mz
     22.49800000	      0.00000000	      0.00000000	      0.00000000	      0.00000000	      0.00000000	      0.00000000	      0.00000000	      0.00000000	      0.00000000	     -3.88308483	   1394.38774942	     53.95729777	      2.16202806	      0.00000000	      0.96533697	     -0.00000000	     12.38577545	     -0.00000000
     22.49900000	      0.00000000	      0.00000000	      0.00000000	      0.00000000	      0.00000000	      0.00000000	      0.00000000	      0.00000000	      0.00000000	     -0.55730292	   1389.26537933	     53.88433847	      2.16006381	      0.00000000	      0.96525558	     -0.00000000	     12.45115143	     -0.00000000
     22.50000000	      0.00000000	      0.00000000	      0.00000000	      0.00000000	      0.00000000	      0.00000000	      0.00000000	      0.00000000	      0.00000000	      2.76847899	   1384.14300925	     53.81137918	      2.15809955	      0.00000000	      0.96517420	     -0.00000000	     12.51652741	     -0.00000000
     22.50100000	      0.00000000	      0.00000000	      0.00000000	      0.00000000	      0.00000000	      0.00000000	      0.00000000	      0.00000000	      0.00000000	      6.05905116	   1378.11831887	     53.63103077	      2.15612005	      0.00000000	      0.96510368	     -0.00000000	     12.57399125	     -0.00000000
     22.50200000	      0.00000000	      0.00000000	      0.00000000	      0.00000000	      0.00000000	      0.00000000	      0.00000000	      0.00000000	      0.00000000	      9.34962333	   1372.09362849	     53.45068236	      2.15414054	      0.00000000	      0.96503317	     -0.00000000	     12.63145509	     -0.00000000
     22.50300000	      0.00000000	      0.00000000	      0.00000000	      0.00000000	      0.00000000	      0.00000000	      0.00000000	      0.00000000	      0.00000000	     12.64019550	   1366.06893811	     53.27033395	      2.15216104	      0.00000000	      0.96496266	     -0.00000000	     12.68891893	     -0.00000000
     22.50400000	      0.00000000	      0.00000000	      0.00000000	      0.00000000	      0.00000000	      0.00000000	      0.00000000	      0.00000000	      0.00000000	     15.89768553	   1359.44674534	     53.01694392	      2.15016694	      0.00000000	      0.96489981	     -0.00000000	     12.74016242	     -0.00000000
     22.50500000	      0.00000000	      0.00000000	      0.00000000	      0.00000000	      0.00000000	      0.00000000	      0.00000000	      0.00000000	      0.00000000	     19.13863449	   1352.52580137	     52.72703307	      2.14816556	      0.00000000	      0.96484080	     -0.00000000	     12.78829572	     -0.00000000
     22.50600000	      0.00000000	      0.00000000	      0.00000000	      0.00000000	      0.00000000	      0.00000000	      0.00000000	      0.00000000	      0.00000000	     22.37958344	   1345.60485740	     52.43712222	      2.14616417	      0.00000000	      0.96478179	     -0.00000000	     12.83642903	     -0.00000000
     22.50700000	      0.00000000	      0.00000000	      0.00000000	      0.00000000	      0.00000000	      0.00000000	      0.00000000	      0.00000000	      0.00000000	     25.59878398	   1338.38779357	     52.11063483	      2.14415353	      0.00000000	      0.96472673	     -0.00000000	     12.88102740	     -0.00000000
     22.50800000	      0.00000000	      0.00000000	      0.00000000	      0.00000000	      0.00000000	      0.00000000	      0.00000000	      0.00000000	      0.00000000	     28.77448768	   1330.57849001	     51.71099432	      2.14212439	      0.00000000	      0.96467955	     -0.00000000	     12.91855591	     -0.00000000
     22.50900000	      0.00000000	      0.00000000	      0.00000000	      0.00000000	      0.00000000	      0.00000000	      0.00000000	      0.00000000	      0.00000000	     31.95019137	   1322.76918645	     51.31135382	      2.14009525	      0.00000000	      0.96463238	     -0.00000000	     12.95608441	     -0.00000000
     22.51000000	      0.00000000	      0.00000000	      0.00000000	      0.00000000	      0.00000000	      0.00000000	      0.00000000	      0.00000000	      0.00000000	     35.12589507	   1314.95988289	     50.91171332	      2.13806610	      0.00000000	      0.96458520	     -0.00000000	     12.99361292	     -0.00000000
     22.51100000	      0.00000000	      0.00000000	      0.00000000	      0.00000000	      0.00000000	      0.00000000	      0.00000000	      0.00000000	      0.00000000	     38.21902626	   1306.27234281	     50.40436041	      2.13600444	      0.00000000	      0.96454990	     -0.00000000	     13.01942194	     -0.00000000
     22.51200000	      0.00000000	      0.00000000	      0.00000000	      0.00000000	      0.00000000	      0.00000000	      0.00000000	      0.00000000	      0.00000000	     41.31215746	   1297.58480274	     49.89700751	      2.13394279	      0.00000000	      0.96451459	     -0.00000000	     13.04523097	     -0.00000000
